<?xml version="1.0" encoding="UTF-8" standalone="no"?>
<!DOCTYPE svg PUBLIC "-//W3C//DTD SVG 1.1//EN" "http://www.w3.org/Graphics/SVG/1.1/DTD/svg11.dtd">
<svg version="1.1" xmlns="http://www.w3.org/2000/svg" xmlns:xlink="http://www.w3.org/1999/xlink" preserveAspectRatio="xMidYMid meet" viewBox="0 0 640 640" width="740" height="740"><defs><path d="M56.11 126.25C57.86 124.51 58.86 122.08 58.86 119.61C58.86 117.14 57.86 114.71 56.11 112.97C54.37 111.22 51.94 110.22 49.47 110.22C46.99 110.22 44.57 111.22 42.83 112.97C41.08 114.71 40.08 117.14 40.08 119.61C40.08 122.08 41.08 124.51 42.83 126.25C44.57 128 47 129 49.47 129C51.94 129 54.37 128 56.11 126.25Z" id="d1ujinl3RO"></path><path d="M86.17 126.25C87.92 124.51 88.92 122.08 88.92 119.61C88.92 117.14 87.92 114.71 86.17 112.97C84.43 111.22 82 110.22 79.53 110.22C77.06 110.22 74.63 111.22 72.89 112.97C71.14 114.71 70.14 117.14 70.14 119.61C70.14 122.08 71.14 124.51 72.89 126.25C74.63 128 77.06 129 79.53 129C82 129 84.43 128 86.17 126.25Z" id="a1OZ4lTFHw"></path><path d="M116.23 126.25C117.98 124.51 118.98 122.08 118.98 119.61C118.98 117.14 117.98 114.71 116.23 112.97C114.49 111.22 112.06 110.22 109.59 110.22C107.12 110.22 104.69 111.22 102.95 112.97C101.2 114.71 100.2 117.14 100.2 119.61C100.2 122.08 101.2 124.51 102.95 126.25C104.69 128 107.12 129 109.59 129C112.06 129 114.49 128 116.23 126.25Z" id="ljWN2xWaQ"></path><path d="M449.63 330.02C449.63 327.01 449.63 302.97 449.63 299.96C449.63 278.21 431.93 260.51 410.18 260.51C409.17 260.51 401.16 260.51 400.16 260.51C394.97 260.51 390.76 264.71 390.76 269.9C390.76 275.09 394.97 279.3 400.16 279.3C401.16 279.3 409.17 279.3 410.18 279.3C421.57 279.3 430.84 288.57 430.84 299.96C430.84 302.97 430.84 327.01 430.84 330.02C430.84 342.05 436.25 352.84 444.77 360.08C436.25 367.32 430.84 378.11 430.84 390.14C430.84 393.14 430.84 417.19 430.84 420.2C430.84 431.59 421.57 440.86 410.18 440.86C409.17 440.86 401.16 440.86 400.16 440.86C394.97 440.86 390.76 445.07 390.76 450.25C390.76 455.44 394.97 459.65 400.16 459.65C401.16 459.65 409.17 459.65 410.18 459.65C431.93 459.65 449.63 441.95 449.63 420.2C449.63 417.19 449.63 393.14 449.63 390.14C449.63 378.74 458.9 369.47 470.29 369.47C475.48 369.47 479.69 365.27 479.69 360.08C479.69 354.89 475.48 350.68 470.29 350.68C458.9 350.68 449.63 341.41 449.63 330.02Z" id="dIr58X9WL"></path><path d="M209.16 299.96C209.16 288.57 218.43 279.3 229.82 279.3C230.83 279.3 238.84 279.3 239.84 279.3C245.03 279.3 249.24 275.09 249.24 269.9C249.24 264.71 245.03 260.51 239.84 260.51C238.84 260.51 230.83 260.51 229.82 260.51C208.07 260.51 190.37 278.21 190.37 299.96C190.37 302.97 190.37 327.01 190.37 330.02C190.37 341.41 181.1 350.68 169.71 350.68C164.52 350.68 160.31 354.89 160.31 360.08C160.31 365.27 164.52 369.47 169.71 369.47C181.1 369.47 190.37 378.74 190.37 390.14C190.37 393.14 190.37 417.19 190.37 420.2C190.37 441.95 208.07 459.65 229.82 459.65C230.83 459.65 238.84 459.65 239.84 459.65C245.03 459.65 249.24 455.44 249.24 450.25C249.24 445.07 245.03 440.86 239.84 440.86C238.84 440.86 230.83 440.86 229.82 440.86C218.43 440.86 209.16 431.59 209.16 420.2C209.16 417.19 209.16 393.14 209.16 390.14C209.16 378.11 203.75 367.32 195.23 360.08C203.75 352.84 209.16 342.05 209.16 330.02C209.16 324.01 209.16 302.97 209.16 299.96Z" id="eeqhhI3dN"></path><path d="M363.46 403.54C361.71 405.28 360.7 407.71 360.7 410.18C360.7 412.64 361.71 415.07 363.46 416.81C365.2 418.57 367.63 419.57 370.1 419.57C372.58 419.57 374.99 418.57 376.74 416.81C378.49 415.07 379.49 412.64 379.49 410.18C379.49 407.71 378.49 405.28 376.74 403.54C374.99 401.78 372.57 400.78 370.1 400.78C367.63 400.78 365.2 401.78 363.46 403.54Z" id="a2CiTBLxI2"></path><path d="M313.36 403.54C311.61 405.28 310.61 407.71 310.61 410.18C310.61 412.66 311.61 415.07 313.36 416.81C315.1 418.57 317.53 419.57 320 419.57C322.47 419.57 324.9 418.57 326.64 416.81C328.39 415.07 329.39 412.64 329.39 410.18C329.39 407.71 328.39 405.28 326.64 403.54C324.9 401.78 322.47 400.78 320 400.78C317.53 400.78 315.1 401.78 313.36 403.54Z" id="b2QcFOw6aQ"></path><path d="M263.26 403.54C261.51 405.28 260.51 407.71 260.51 410.18C260.51 412.64 261.51 415.07 263.26 416.81C265.01 418.57 267.43 419.57 269.9 419.57C272.37 419.57 274.8 418.57 276.54 416.81C278.29 415.07 279.3 412.64 279.3 410.18C279.3 407.71 278.29 405.28 276.54 403.54C274.8 401.78 272.37 400.78 269.9 400.78C267.42 400.78 265.01 401.78 263.26 403.54Z" id="eFeGbtpPW"></path><path d="M530.41 129C535.6 129 539.8 124.8 539.8 119.61C539.8 114.42 535.6 110.22 530.41 110.22C492.34 110.22 187.74 110.22 149.67 110.22C144.48 110.22 140.27 114.42 140.27 119.61C140.27 124.8 144.48 129 149.67 129C225.82 129 492.34 129 530.41 129Z" id="b27FgcvPJq"></path><path d="M590.53 129C595.72 129 599.92 124.8 599.92 119.61C599.92 114.42 595.72 110.22 590.53 110.22C588.52 110.22 572.49 110.22 570.49 110.22C565.3 110.22 561.1 114.42 561.1 119.61C561.1 124.8 565.3 129 570.49 129C574.5 129 588.52 129 590.53 129Z" id="hfuZlEnYr"></path><path d="M49.47 70.14C22.19 70.14 0 92.33 0 119.61C0 159.69 0 480.31 0 520.39C0 547.67 22.19 569.86 49.47 569.86C103.58 569.86 536.42 569.86 590.53 569.86C617.81 569.86 640 547.67 640 520.39C640 480.31 640 159.69 640 119.61C640 92.33 617.81 70.14 590.53 70.14C482.32 70.14 103.58 70.14 49.47 70.14ZM590.53 88.92C607.45 88.92 621.21 102.69 621.21 119.61C621.21 121.65 621.21 131.88 621.21 150.29L18.79 150.29C18.79 131.88 18.79 121.65 18.79 119.61C18.79 102.69 32.55 88.92 49.47 88.92C157.68 88.92 536.42 88.92 590.53 88.92ZM49.47 551.08C32.55 551.08 18.79 537.31 18.79 520.39C18.79 496.97 18.79 379.87 18.79 169.08L621.21 169.08C621.21 379.87 621.21 496.97 621.21 520.39C621.21 537.31 607.45 551.08 590.53 551.08C482.32 551.08 103.58 551.08 49.47 551.08Z" id="a66mtbvcuD"></path></defs><g><g><g><use xlink:href="#d1ujinl3RO" opacity="1" fill="#00cf5d" fill-opacity="1"></use><g><use xlink:href="#d1ujinl3RO" opacity="1" fill-opacity="0" stroke="#000000" stroke-width="1" stroke-opacity="0"></use></g></g><g><use xlink:href="#a1OZ4lTFHw" opacity="1" fill="#00cf5d" fill-opacity="1"></use><g><use xlink:href="#a1OZ4lTFHw" opacity="1" fill-opacity="0" stroke="#000000" stroke-width="1" stroke-opacity="0"></use></g></g><g><use xlink:href="#ljWN2xWaQ" opacity="1" fill="#00cf5d" fill-opacity="1"></use><g><use xlink:href="#ljWN2xWaQ" opacity="1" fill-opacity="0" stroke="#000000" stroke-width="1" stroke-opacity="0"></use></g></g><g><use xlink:href="#dIr58X9WL" opacity="1" fill="#00cf5d" fill-opacity="1"></use><g><use xlink:href="#dIr58X9WL" opacity="1" fill-opacity="0" stroke="#000000" stroke-width="1" stroke-opacity="0"></use></g></g><g><use xlink:href="#eeqhhI3dN" opacity="1" fill="#00cf5d" fill-opacity="1"></use><g><use xlink:href="#eeqhhI3dN" opacity="1" fill-opacity="0" stroke="#000000" stroke-width="1" stroke-opacity="0"></use></g></g><g><use xlink:href="#a2CiTBLxI2" opacity="1" fill="#00cf5d" fill-opacity="1"></use><g><use xlink:href="#a2CiTBLxI2" opacity="1" fill-opacity="0" stroke="#000000" stroke-width="1" stroke-opacity="0"></use></g></g><g><use xlink:href="#b2QcFOw6aQ" opacity="1" fill="#00cf5d" fill-opacity="1"></use><g><use xlink:href="#b2QcFOw6aQ" opacity="1" fill-opacity="0" stroke="#000000" stroke-width="1" stroke-opacity="0"></use></g></g><g><use xlink:href="#eFeGbtpPW" opacity="1" fill="#00cf5d" fill-opacity="1"></use><g><use xlink:href="#eFeGbtpPW" opacity="1" fill-opacity="0" stroke="#000000" stroke-width="1" stroke-opacity="0"></use></g></g><g><use xlink:href="#b27FgcvPJq" opacity="1" fill="#00cf5d" fill-opacity="1"></use><g><use xlink:href="#b27FgcvPJq" opacity="1" fill-opacity="0" stroke="#000000" stroke-width="1" stroke-opacity="0"></use></g></g><g><use xlink:href="#hfuZlEnYr" opacity="1" fill="#00cf5d" fill-opacity="1"></use><g><use xlink:href="#hfuZlEnYr" opacity="1" fill-opacity="0" stroke="#000000" stroke-width="1" stroke-opacity="0"></use></g></g><g><use xlink:href="#a66mtbvcuD" opacity="1" fill="#00cf5d" fill-opacity="1"></use><g><use xlink:href="#a66mtbvcuD" opacity="1" fill-opacity="0" stroke="#000000" stroke-width="1" stroke-opacity="0"></use></g></g></g></g></svg>