<?xml version="1.0" encoding="UTF-8" standalone="no"?>
<!DOCTYPE svg PUBLIC "-//W3C//DTD SVG 1.1//EN" "http://www.w3.org/Graphics/SVG/1.1/DTD/svg11.dtd">
<svg version="1.1" xmlns="http://www.w3.org/2000/svg" xmlns:xlink="http://www.w3.org/1999/xlink" preserveAspectRatio="xMidYMid meet" viewBox="0 0 640 640" width="640" height="640"><defs><path d="M257.75 150.17C270.92 170.65 293.89 184.26 319.99 184.26C346.09 184.26 369.06 170.66 382.23 150.19C388.11 155.82 396.07 159.29 404.84 159.29C422.87 159.29 437.54 144.62 437.54 126.58C437.54 123.33 437.54 97.29 437.54 94.04C437.54 81.78 430.76 71.08 420.75 65.48C403 25.56 363.91 0 319.99 0C276.06 0 236.98 25.56 219.22 65.48C209.22 71.08 202.43 81.78 202.43 94.04C202.43 97.29 202.43 123.33 202.43 126.59C202.43 144.62 217.11 159.29 235.14 159.29C243.91 159.29 251.88 155.81 257.75 150.17ZM393.94 94.04C393.94 88.03 398.83 83.14 404.84 83.14C410.85 83.14 415.74 88.03 415.74 94.04C415.74 97.29 415.74 123.33 415.74 126.58C415.74 132.6 410.85 137.49 404.84 137.49C398.83 137.49 393.94 132.6 393.94 126.58C393.94 120.07 393.94 97.29 393.94 94.04ZM267.84 110.31C267.84 81.54 291.24 58.14 319.99 58.14C348.44 58.14 371.64 81.05 372.13 109.39C372.13 109.57 372.13 111.05 372.13 111.23C371.64 139.56 348.44 162.46 319.99 162.46C291.24 162.46 267.84 139.06 267.84 110.31ZM235.14 137.49C229.13 137.49 224.24 132.6 224.24 126.58C224.24 123.33 224.24 97.29 224.24 94.04C224.24 88.03 229.13 83.14 235.14 83.14C241.15 83.14 246.04 88.03 246.04 94.04C246.04 96.21 246.04 107.06 246.04 126.58C242.78 133.85 239.15 137.49 235.14 137.49ZM394.74 62.94C390.01 64.48 385.75 67.07 382.24 70.43C369.07 49.95 346.1 36.34 319.99 36.34C293.89 36.34 270.91 49.95 257.75 70.44C254.24 67.07 249.97 64.48 245.24 62.93C261.27 37.52 289.14 21.8 319.99 21.8C350.84 21.8 378.71 37.52 394.74 62.94Z" id="b26fFd94Es"></path><path d="M392.08 343.2C392.08 284.99 392.08 252.66 392.08 246.19C393.13 246.21 394.17 246.23 395.21 246.23C426.4 246.23 456.44 235.71 481.1 215.91C509.76 192.9 527.75 160.1 531.74 123.56C532.4 117.58 528.08 112.19 522.09 111.54C516.11 110.89 510.72 115.2 510.07 121.19C506.71 151.94 491.57 179.54 467.45 198.91C445.48 216.55 418.45 225.4 390.56 224.3C386.15 209.78 372.64 199.18 356.7 199.18C349.36 199.18 290.64 199.18 283.29 199.18C266.15 199.18 251.81 211.44 248.59 227.66C206.39 251.18 179.7 295.16 178.07 343.2C171.38 343.2 117.87 343.2 111.18 343.2C105.16 343.2 100.27 348.08 100.27 354.1C100.27 359.53 100.27 402.94 100.27 408.37C100.27 411.26 101.42 414.03 103.47 416.07C105.51 418.12 108.29 419.27 111.18 419.27C112.39 419.27 118.45 419.27 129.35 419.27C129.35 545.16 129.35 615.11 129.35 629.1C129.35 635.12 134.23 640 140.25 640C146.27 640 151.15 635.12 151.15 629.1C151.15 621.83 151.15 585.49 151.15 520.08L271.49 520.08L276.13 608.46C257.43 614.63 247.04 618.06 244.96 618.74C239.24 620.63 236.14 626.79 238.02 632.51C239.53 637.09 243.8 640 248.37 640C249.51 640 250.66 639.82 251.79 639.45C255.7 638.16 286.97 627.85 290.87 626.56C295.54 625.02 298.6 620.55 298.35 615.64C298.01 609.27 296.34 577.42 293.33 520.08L346.68 520.08C343.67 577.42 342 609.27 341.66 615.64C341.4 620.55 344.47 625.02 349.13 626.56C353.04 627.85 384.31 638.16 388.22 639.45C389.35 639.82 390.5 640 391.63 640C396.21 640 400.47 637.09 401.99 632.51C403.87 626.79 400.76 620.63 395.05 618.74C392.97 618.06 382.58 614.63 363.87 608.46L368.51 520.08L488.86 520.08C488.86 585.49 488.86 621.83 488.86 629.1C488.86 635.12 493.74 640 499.76 640C505.78 640 510.66 635.12 510.66 629.1C510.66 615.11 510.66 545.16 510.66 419.27C521.56 419.27 527.62 419.27 528.83 419.27C531.72 419.27 534.49 418.12 536.54 416.07C538.58 414.03 539.73 411.26 539.73 408.37C539.73 402.94 539.73 359.53 539.73 354.1C539.73 348.08 534.84 343.2 528.82 343.2C510.59 343.2 465.01 343.2 392.08 343.2ZM227.45 397.46C221.43 397.46 216.55 402.34 216.55 408.36C216.55 414.38 221.43 419.26 227.45 419.26C244.88 419.26 332.01 419.26 488.85 419.27L488.85 498.28L151.15 498.28L151.15 419.26C170.77 419.26 181.67 419.26 183.85 419.26C189.87 419.26 194.75 414.38 194.75 408.36C194.75 402.34 189.87 397.46 183.85 397.46C179.73 397.46 159.14 397.46 122.08 397.46L122.08 365L517.92 365L517.92 397.46C343.64 397.46 246.82 397.46 227.45 397.46ZM370.28 234.61C370.28 241.85 370.28 278.04 370.28 343.2L269.72 343.2C269.72 278.02 269.72 241.8 269.72 234.56C269.72 227.07 275.81 220.98 283.3 220.98C290.64 220.98 349.36 220.98 356.7 220.98C364.16 220.98 370.23 227.03 370.28 234.48C370.28 234.52 370.28 234.57 370.28 234.61ZM247.91 343.2C219.1 343.2 203.09 343.2 199.89 343.2C201.33 307.52 219.19 274.59 247.91 253.89C247.91 265.8 247.91 295.57 247.91 343.2Z" id="aL6mbeueW"></path></defs><g><g><g><use xlink:href="#b26fFd94Es" opacity="1" fill="#00cf5d" fill-opacity="1"></use><g><use xlink:href="#b26fFd94Es" opacity="1" fill-opacity="0" stroke="#000000" stroke-width="1" stroke-opacity="0"></use></g></g><g><use xlink:href="#aL6mbeueW" opacity="1" fill="#00cf5d" fill-opacity="1"></use><g><use xlink:href="#aL6mbeueW" opacity="1" fill-opacity="0" stroke="#000000" stroke-width="1" stroke-opacity="0"></use></g></g></g></g></svg>