<svg xmlns="http://www.w3.org/2000/svg" xmlns:xlink="http://www.w3.org/1999/xlink" viewBox="0 0 640 640">
  <defs>
    <path id="a" d="M14.03 304.09c0 162.41 127.16 294.08 284 294.08s284-131.67 284-294.08-127.16-294.08-284-294.08-284 131.67-284 294.08zm385.61-67.44c-62.3 55.62-105.45 166.1-120.14 191.63-13.92 24.19-40.75 3.52-40.9-7.63-.78-55.5 6.74-147.82 21.9-227.86-60.78 66.81-106.27 203.63-123.74 239.61-11.19 23.05-39.9 2.73-39.62-8.67 1.99-79.84-11.03-119.22-11.84-127.85-1.25-13.38 45.95-25.46 45.3 29.49 39.08-114.55 103.66-201.93 151.22-181.5 54.24 23.29 22.96 94.43 12.67 156.24 32.03-56.95 71.6-131.81 128.56-106.93 55.67 24.34-23.12 163.76 16.44 195.88 9.58 7.79 24.93 6.65 35.06-8.02 7.89-11.45 7.71-23.24 12.82-25.7 15.46-7.4 25.35 12.95 23.09 29.58-4.59 33.74-46.85 76.91-98.43 49.69-50.97-26.89-35.91-115.6-12.39-197.96z"/>
  </defs>
  <use fill="#00cf5d" xlink:href="#a"/>
  <use fill-opacity="0" stroke="#000" stroke-opacity="0" xlink:href="#a"/>
</svg>
