<svg xmlns="http://www.w3.org/2000/svg" xmlns:xlink="http://www.w3.org/1999/xlink" viewBox="0 0 640 640"><defs><path id="b" d="M485.28 141.93c.75.78 4.48 4.71 11.2 11.79l31.11-32.27-.01-.01c10-10.38 15.55-16.15 16.66-17.3-54.72-55.26-128.36-90.13-209.74-92.8 0 1.62-.03 9.73-.09 24.34l-.16 45.8 15.89.06c.08-21.32.12-33.17.13-35.54 77.16 20.93 130.29 44.48 159.4 70.65-1.64 1.69-9.75 10.1-24.39 25.28z"/><path id="e" d="M302.04 81.34c1.06 0 6.35.02 15.88.06l.13-36.6c.02-5.52.03-8.59.04-9.2.05-14.62.08-22.74.09-24.37-81.49 1.65-155.54 35.62-210.9 90.21 2.26 2.38 20.36 21.43 22.62 23.82.03-.02.05-.05.06-.05 1.59 1.74 9.54 10.44 23.82 26.11.77-.76 4.61-4.57 11.52-11.44-14.04-15.4-21.85-23.95-23.41-25.66 66.37-42.4 119.8-65.25 160.28-68.54-.01 2.37-.05 14.26-.13 35.66z"/><path id="h" d="M575.52 370.62c20.39.08 31.73.13 33.99.14-5.49 63.36-30.04 120.95-67.6 166.58-1.62-1.7-9.69-10.2-24.2-25.49-.75.78-4.51 4.69-11.29 11.72l30.87 32.51c.02-.01.03-.02.03-.02 9.92 10.46 15.45 16.26 16.55 17.43 52.88-57.21 86.25-134.17 88.81-219.21-1.55-.01-9.32-.04-23.28-.09l-43.82-.18c-.04 9.97-.06 15.51-.06 16.61z"/><path id="k" d="M519.66 177.44c14.74-14.66 22.93-22.82 24.56-24.45 36.99 46.12 60.84 104.03 65.56 167.49-2.27-.01-13.64-.05-34.11-.13 0 1.11-.02 6.64-.06 16.61l35.02.13c5.28.02 8.21.04 8.8.04 14 .05 21.76.08 23.32.09-1.58-85.15-34.05-162.55-86.29-220.39-2.28 2.36-20.52 21.28-22.8 23.64l.05.05c-3.33 3.33-11.67 11.62-25 24.89 2.19 2.41 9.86 10.83 10.95 12.03z"/><path id="n" d="M74.09 368.67c0-1.11.02-6.65.06-16.61l-43.82-.17c-13.98-.06-21.74-.09-23.29-.1C9 436.87 41.8 514.09 94.25 571.69c1.11-1.16 6.67-6.92 16.67-17.29 0 0 .01 0 .03.01l31.1-32.26-11.19-11.79c-14.62 15.17-22.74 23.6-24.37 25.28C65.57 466.5 43.44 410.79 40.1 368.53c2.26.01 13.59.06 33.99.14z"/><path id="q" d="M74.27 318.39c-20.47-.08-31.84-.12-34.11-.13 5.16-63.43 29.44-121.15 66.78-166.98 1.62 1.64 9.75 9.87 24.38 24.65 1.1-1.2 9.94-10.75 11.05-11.95-14.9-15.05-23.17-23.42-24.83-25.09.02-.01.05-.03.05-.05-2.26-2.37-20.36-21.44-22.62-23.81-52.65 57.43-85.7 134.55-87.9 219.71 1.56 0 9.32.03 23.31.09.59 0 3.53.01 8.83.03l35 .14c.03-9.97.05-15.5.06-16.61z"/><path id="t" d="M136.82 500.45c.97-.3 2.02-.45 3.12-.44 2.72.01 16.29.06 40.72.15 1.01-7.17 6.05-43.04 15.11-107.61l33.76 107.07 35.3-107.42 14.2 108.35 43.75.17-40.34-307.79-52.05 158.36-50.25-159.39c-26.96 191.99-41.4 294.84-43.32 308.55z"/><path id="v" d="M401.64 379.37l65.96.25-.44 121.68 51.99.2 1.08-295.41-52-.2-.39 109.58-65.96-.26.4-109.58-52-.2-1.07 295.41 51.99.2.44-121.67z"/></defs><filter id="a" width="228.99" height="161.37" x="325.25" y="2.34" filterUnits="userSpaceOnUse" primitiveUnits="userSpaceOnUse"><feFlood/><feComposite in2="SourceAlpha" operator="in"/><feGaussianBlur stdDeviation="1"/><feOffset dx="1" dy="1" result="afterOffset"/><feFlood flood-color="#000" flood-opacity=".5"/><feComposite in2="afterOffset" operator="in"/><feMorphology operator="dilate" radius="1"/><feComposite in2="SourceAlpha" operator="out"/></filter><path fill="#fff" d="M485.28 141.93c.75.78 4.48 4.71 11.2 11.79l31.11-32.27-.01-.01c10-10.38 15.55-16.15 16.66-17.3-54.72-55.26-128.36-90.13-209.74-92.8 0 1.62-.03 9.73-.09 24.34l-.16 45.8 15.89.06c.08-21.32.12-33.17.13-35.54 77.16 20.93 130.29 44.48 159.4 70.65-1.64 1.69-9.75 10.1-24.39 25.28z" filter="url(#a)"/><use fill="#00cf5d" xlink:href="#b"/><use fill-opacity="0" stroke="#000" stroke-opacity="0" xlink:href="#b"/><filter id="c" width="228.99" height="161.37" x="325.25" y="2.34" filterUnits="userSpaceOnUse" primitiveUnits="userSpaceOnUse"><feFlood/><feComposite in2="SourceAlpha" operator="out"/><feGaussianBlur stdDeviation="1"/><feOffset dx="1" dy="1" result="afterOffset"/><feFlood flood-color="#000" flood-opacity=".5"/><feComposite in2="afterOffset" operator="in"/><feMorphology operator="dilate" radius="1"/><feComposite in2="SourceAlpha" operator="in"/></filter><path fill="#fff" d="M485.28 141.93c.75.78 4.48 4.71 11.2 11.79l31.11-32.27-.01-.01c10-10.38 15.55-16.15 16.66-17.3-54.72-55.26-128.36-90.13-209.74-92.8 0 1.62-.03 9.73-.09 24.34l-.16 45.8 15.89.06c.08-21.32.12-33.17.13-35.54 77.16 20.93 130.29 44.48 159.4 70.65-1.64 1.69-9.75 10.1-24.39 25.28z" filter="url(#c)"/><filter id="d" width="229.89" height="159.09" x="98.28" y="2.23" filterUnits="userSpaceOnUse" primitiveUnits="userSpaceOnUse"><feFlood/><feComposite in2="SourceAlpha" operator="in"/><feGaussianBlur stdDeviation="1"/><feOffset dx="1" dy="1" result="afterOffset"/><feFlood flood-color="#000" flood-opacity=".5"/><feComposite in2="afterOffset" operator="in"/><feMorphology operator="dilate" radius="1"/><feComposite in2="SourceAlpha" operator="out"/></filter><path fill="#fff" d="M302.04 81.34c1.06 0 6.35.02 15.88.06l.13-36.6c.02-5.52.03-8.59.04-9.2.05-14.62.08-22.74.09-24.37-81.49 1.65-155.54 35.62-210.9 90.21 2.26 2.38 20.36 21.43 22.62 23.82.03-.02.05-.05.06-.05 1.59 1.74 9.54 10.44 23.82 26.11.77-.76 4.61-4.57 11.52-11.44-14.04-15.4-21.85-23.95-23.41-25.66 66.37-42.4 119.8-65.25 160.28-68.54-.01 2.37-.05 14.26-.13 35.66z" filter="url(#d)"/><use fill="#00cf5d" xlink:href="#e"/><use fill-opacity="0" stroke="#000" stroke-opacity="0" xlink:href="#e"/><g><filter id="f" width="229.89" height="159.09" x="98.28" y="2.23" filterUnits="userSpaceOnUse" primitiveUnits="userSpaceOnUse"><feFlood/><feComposite in2="SourceAlpha" operator="out"/><feGaussianBlur stdDeviation="1"/><feOffset dx="1" dy="1" result="afterOffset"/><feFlood flood-color="#000" flood-opacity=".5"/><feComposite in2="afterOffset" operator="in"/><feMorphology operator="dilate" radius="1"/><feComposite in2="SourceAlpha" operator="in"/></filter><path fill="#fff" d="M302.04 81.34c1.06 0 6.35.02 15.88.06l.13-36.6c.02-5.52.03-8.59.04-9.2.05-14.62.08-22.74.09-24.37-81.49 1.65-155.54 35.62-210.9 90.21 2.26 2.38 20.36 21.43 22.62 23.82.03-.02.05-.05.06-.05 1.59 1.74 9.54 10.44 23.82 26.11.77-.76 4.61-4.57 11.52-11.44-14.04-15.4-21.85-23.95-23.41-25.66 66.37-42.4 119.8-65.25 160.28-68.54-.01 2.37-.05 14.26-.13 35.66z" filter="url(#f)"/></g><g><filter id="g" width="155.26" height="238.47" x="497.42" y="345.01" filterUnits="userSpaceOnUse" primitiveUnits="userSpaceOnUse"><feFlood/><feComposite in2="SourceAlpha" operator="in"/><feGaussianBlur stdDeviation="1"/><feOffset dx="1" dy="1" result="afterOffset"/><feFlood flood-color="#000" flood-opacity=".5"/><feComposite in2="afterOffset" operator="in"/><feMorphology operator="dilate" radius="1"/><feComposite in2="SourceAlpha" operator="out"/></filter><path fill="#fff" d="M575.52 370.62c20.39.08 31.73.13 33.99.14-5.49 63.36-30.04 120.95-67.6 166.58-1.62-1.7-9.69-10.2-24.2-25.49-.75.78-4.51 4.69-11.29 11.72l30.87 32.51c.02-.01.03-.02.03-.02 9.92 10.46 15.45 16.26 16.55 17.43 52.88-57.21 86.25-134.17 88.81-219.21-1.55-.01-9.32-.04-23.28-.09l-43.82-.18c-.04 9.97-.06 15.51-.06 16.61z" filter="url(#g)"/><use fill="#00cf5d" xlink:href="#h"/><use fill-opacity="0" stroke="#000" stroke-opacity="0" xlink:href="#h"/><g><filter id="i" width="155.26" height="238.47" x="497.42" y="345.01" filterUnits="userSpaceOnUse" primitiveUnits="userSpaceOnUse"><feFlood/><feComposite in2="SourceAlpha" operator="out"/><feGaussianBlur stdDeviation="1"/><feOffset dx="1" dy="1" result="afterOffset"/><feFlood flood-color="#000" flood-opacity=".5"/><feComposite in2="afterOffset" operator="in"/><feMorphology operator="dilate" radius="1"/><feComposite in2="SourceAlpha" operator="in"/></filter><path fill="#fff" d="M575.52 370.62c20.39.08 31.73.13 33.99.14-5.49 63.36-30.04 120.95-67.6 166.58-1.62-1.7-9.69-10.2-24.2-25.49-.75.78-4.51 4.69-11.29 11.72l30.87 32.51c.02-.01.03-.02.03-.02 9.92 10.46 15.45 16.26 16.55 17.43 52.88-57.21 86.25-134.17 88.81-219.21-1.55-.01-9.32-.04-23.28-.09l-43.82-.18c-.04 9.97-.06 15.51-.06 16.61z" filter="url(#i)"/></g></g><g><filter id="j" width="153.03" height="239.39" x="499.71" y="107.83" filterUnits="userSpaceOnUse" primitiveUnits="userSpaceOnUse"><feFlood/><feComposite in2="SourceAlpha" operator="in"/><feGaussianBlur stdDeviation="1"/><feOffset dx="1" dy="1" result="afterOffset"/><feFlood flood-color="#000" flood-opacity=".5"/><feComposite in2="afterOffset" operator="in"/><feMorphology operator="dilate" radius="1"/><feComposite in2="SourceAlpha" operator="out"/></filter><path fill="#fff" d="M519.66 177.44c14.74-14.66 22.93-22.82 24.56-24.45 36.99 46.12 60.84 104.03 65.56 167.49-2.27-.01-13.64-.05-34.11-.13 0 1.11-.02 6.64-.06 16.61l35.02.13c5.28.02 8.21.04 8.8.04 14 .05 21.76.08 23.32.09-1.58-85.15-34.05-162.55-86.29-220.39-2.28 2.36-20.52 21.28-22.8 23.64l.05.05c-3.33 3.33-11.67 11.62-25 24.89 2.19 2.41 9.86 10.83 10.95 12.03z" filter="url(#j)"/><use fill="#00cf5d" xlink:href="#k"/><use fill-opacity="0" stroke="#000" stroke-opacity="0" xlink:href="#k"/><g><filter id="l" width="153.03" height="239.39" x="499.71" y="107.83" filterUnits="userSpaceOnUse" primitiveUnits="userSpaceOnUse"><feFlood/><feComposite in2="SourceAlpha" operator="out"/><feGaussianBlur stdDeviation="1"/><feOffset dx="1" dy="1" result="afterOffset"/><feFlood flood-color="#000" flood-opacity=".5"/><feComposite in2="afterOffset" operator="in"/><feMorphology operator="dilate" radius="1"/><feComposite in2="SourceAlpha" operator="in"/></filter><path fill="#fff" d="M519.66 177.44c14.74-14.66 22.93-22.82 24.56-24.45 36.99 46.12 60.84 104.03 65.56 167.49-2.27-.01-13.64-.05-34.11-.13 0 1.11-.02 6.64-.06 16.61l35.02.13c5.28.02 8.21.04 8.8.04 14 .05 21.76.08 23.32.09-1.58-85.15-34.05-162.55-86.29-220.39-2.28 2.36-20.52 21.28-22.8 23.64l.05.05c-3.33 3.33-11.67 11.62-25 24.89 2.19 2.41 9.86 10.83 10.95 12.03z" filter="url(#l)"/></g></g><g><filter id="m" width="154.01" height="238.9" x="-1.96" y="342.79" filterUnits="userSpaceOnUse" primitiveUnits="userSpaceOnUse"><feFlood/><feComposite in2="SourceAlpha" operator="in"/><feGaussianBlur stdDeviation="1"/><feOffset dx="1" dy="1" result="afterOffset"/><feFlood flood-color="#000" flood-opacity=".5"/><feComposite in2="afterOffset" operator="in"/><feMorphology operator="dilate" radius="1"/><feComposite in2="SourceAlpha" operator="out"/></filter><path fill="#fff" d="M74.09 368.67c0-1.11.02-6.65.06-16.61l-43.82-.17c-13.98-.06-21.74-.09-23.29-.1C9 436.87 41.8 514.09 94.25 571.69c1.11-1.16 6.67-6.92 16.67-17.29 0 0 .01 0 .03.01l31.1-32.26-11.19-11.79c-14.62 15.17-22.74 23.6-24.37 25.28C65.57 466.5 43.44 410.79 40.1 368.53c2.26.01 13.59.06 33.99.14z" filter="url(#m)"/><use fill="#00cf5d" xlink:href="#n"/><use fill-opacity="0" stroke="#000" stroke-opacity="0" xlink:href="#n"/><g><filter id="o" width="154.01" height="238.9" x="-1.96" y="342.79" filterUnits="userSpaceOnUse" primitiveUnits="userSpaceOnUse"><feFlood/><feComposite in2="SourceAlpha" operator="out"/><feGaussianBlur stdDeviation="1"/><feOffset dx="1" dy="1" result="afterOffset"/><feFlood flood-color="#000" flood-opacity=".5"/><feComposite in2="afterOffset" operator="in"/><feMorphology operator="dilate" radius="1"/><feComposite in2="SourceAlpha" operator="in"/></filter><path fill="#fff" d="M74.09 368.67c0-1.11.02-6.65.06-16.61l-43.82-.17c-13.98-.06-21.74-.09-23.29-.1C9 436.87 41.8 514.09 94.25 571.69c1.11-1.16 6.67-6.92 16.67-17.29 0 0 .01 0 .03.01l31.1-32.26-11.19-11.79c-14.62 15.17-22.74 23.6-24.37 25.28C65.57 466.5 43.44 410.79 40.1 368.53c2.26.01 13.59.06 33.99.14z" filter="url(#o)"/></g></g><g><filter id="p" width="154.3" height="238.97" x="-1.93" y="106.03" filterUnits="userSpaceOnUse" primitiveUnits="userSpaceOnUse"><feFlood/><feComposite in2="SourceAlpha" operator="in"/><feGaussianBlur stdDeviation="1"/><feOffset dx="1" dy="1" result="afterOffset"/><feFlood flood-color="#000" flood-opacity=".5"/><feComposite in2="afterOffset" operator="in"/><feMorphology operator="dilate" radius="1"/><feComposite in2="SourceAlpha" operator="out"/></filter><path fill="#fff" d="M74.27 318.39c-20.47-.08-31.84-.12-34.11-.13 5.16-63.43 29.44-121.15 66.78-166.98 1.62 1.64 9.75 9.87 24.38 24.65 1.1-1.2 9.94-10.75 11.05-11.95-14.9-15.05-23.17-23.42-24.83-25.09.02-.01.05-.03.05-.05-2.26-2.37-20.36-21.44-22.62-23.81-52.65 57.43-85.7 134.55-87.9 219.71 1.56 0 9.32.03 23.31.09.59 0 3.53.01 8.83.03l35 .14c.03-9.97.05-15.5.06-16.61z" filter="url(#p)"/><use fill="#00cf5d" xlink:href="#q"/><use fill-opacity="0" stroke="#000" stroke-opacity="0" xlink:href="#q"/><g><filter id="r" width="154.3" height="238.97" x="-1.93" y="106.03" filterUnits="userSpaceOnUse" primitiveUnits="userSpaceOnUse"><feFlood/><feComposite in2="SourceAlpha" operator="out"/><feGaussianBlur stdDeviation="1"/><feOffset dx="1" dy="1" result="afterOffset"/><feFlood flood-color="#000" flood-opacity=".5"/><feComposite in2="afterOffset" operator="in"/><feMorphology operator="dilate" radius="1"/><feComposite in2="SourceAlpha" operator="in"/></filter><path fill="#fff" d="M74.27 318.39c-20.47-.08-31.84-.12-34.11-.13 5.16-63.43 29.44-121.15 66.78-166.98 1.62 1.64 9.75 9.87 24.38 24.65 1.1-1.2 9.94-10.75 11.05-11.95-14.9-15.05-23.17-23.42-24.83-25.09.02-.01.05-.03.05-.05-2.26-2.37-20.36-21.44-22.62-23.81-52.65 57.43-85.7 134.55-87.9 219.71 1.56 0 9.32.03 23.31.09.59 0 3.53.01 8.83.03l35 .14c.03-9.97.05-15.5.06-16.61z" filter="url(#r)"/></g></g><g><filter id="s" width="204.97" height="327.82" x="127.82" y="182.9" filterUnits="userSpaceOnUse" primitiveUnits="userSpaceOnUse"><feFlood/><feComposite in2="SourceAlpha" operator="in"/><feGaussianBlur stdDeviation="1"/><feOffset dx="1" dy="1" result="afterOffset"/><feFlood flood-color="#000" flood-opacity=".5"/><feComposite in2="afterOffset" operator="in"/><feMorphology operator="dilate" radius="1"/><feComposite in2="SourceAlpha" operator="out"/></filter><path fill="#fff" d="M136.82 500.45c.97-.3 2.02-.45 3.12-.44 2.72.01 16.29.06 40.72.15 1.01-7.17 6.05-43.04 15.11-107.61l33.76 107.07 35.3-107.42 14.2 108.35 43.75.17-40.34-307.79-52.05 158.36-50.25-159.39c-26.96 191.99-41.4 294.84-43.32 308.55z" filter="url(#s)"/><use fill="#00cf5d" xlink:href="#t"/><use fill-opacity="0" stroke="#000" stroke-opacity="0" xlink:href="#t"/><g><filter id="u" width="204.97" height="327.82" x="127.82" y="182.9" filterUnits="userSpaceOnUse" primitiveUnits="userSpaceOnUse"><feFlood/><feComposite in2="SourceAlpha" operator="out"/><feGaussianBlur stdDeviation="1"/><feOffset dx="1" dy="1" result="afterOffset"/><feFlood flood-color="#000" flood-opacity=".5"/><feComposite in2="afterOffset" operator="in"/><feMorphology operator="dilate" radius="1"/><feComposite in2="SourceAlpha" operator="in"/></filter><path fill="#fff" d="M136.82 500.45c.97-.3 2.02-.45 3.12-.44 2.72.01 16.29.06 40.72.15 1.01-7.17 6.05-43.04 15.11-107.61l33.76 107.07 35.3-107.42 14.2 108.35 43.75.17-40.34-307.79-52.05 158.36-50.25-159.39c-26.96 191.99-41.4 294.84-43.32 308.55z" filter="url(#u)"/></g></g><g><use fill="#00cf5d" xlink:href="#v"/><use fill-opacity="0" stroke="#000" stroke-opacity="0" xlink:href="#v"/></g></svg>