<?xml version="1.0" encoding="UTF-8" standalone="no"?>
<!DOCTYPE svg PUBLIC "-//W3C//DTD SVG 1.1//EN" "http://www.w3.org/Graphics/SVG/1.1/DTD/svg11.dtd">
<svg version="1.1" xmlns="http://www.w3.org/2000/svg" xmlns:xlink="http://www.w3.org/1999/xlink" preserveAspectRatio="xMidYMid meet" viewBox="0 0 640 640" width="740" height="740"><defs><path d="M120 304C118.4 304 105.6 304 104 304C104 321.65 118.35 336 136 336C153.65 336 168 321.65 168 304C166.4 304 153.6 304 152 304C152 312.82 144.82 320 136 320C127.18 320 120 312.82 120 304Z" id="b3MYSpHdkg"></path><path d="M262.53 72C259.22 62.71 250.42 56 240 56C237.18 56 234.51 56.58 232 57.47C232 54.92 232 34.55 232 32C232 27.59 235.59 24 240 24C244.41 24 248 27.59 248 32C249.6 32 262.4 32 264 32C264 18.77 253.23 8 240 8C226.77 8 216 18.77 216 32C216 34.67 216 48 216 72C205.52 72 199.69 72 198.53 72C195.22 62.71 186.42 56 176 56C173.18 56 170.51 56.58 168 57.47C168 54.92 168 34.55 168 32C168 27.59 171.59 24 176 24C180.41 24 184 27.59 184 32C185.6 32 198.4 32 200 32C200 18.77 189.23 8 176 8C162.77 8 152 18.77 152 32C152 34.67 152 48 152 72C147.2 72 144.53 72 144 72C130.77 72 120 82.77 120 96C120 100.8 120 124.8 120 168C105.27 168 97.09 168 95.46 168C83.36 168 71.98 172.7 63.42 181.26C63.21 181.47 61.52 183.15 61.31 183.36C52.73 191.93 48 203.35 48 215.94C48 221.87 49.42 227.58 51.95 232.73C51.79 232.89 50.5 234.18 50.34 234.34C43.67 241.01 40 249.88 40 259.31C40 269.3 43.44 279.1 49.68 286.9C52.03 289.84 70.86 313.36 73.22 316.3C76.67 333.96 87.43 349.01 102.2 358.24C101.88 359.5 100.31 365.8 97.47 377.14C85.61 379.52 79.01 380.83 77.7 381.1C66.54 383.33 56.07 387.66 46.61 393.98C22.43 410.1 8 437.06 8 466.12C8 468.65 8 481.27 8 504L264 504C264 481.27 264 468.65 264 466.12C264 437.06 249.57 410.1 225.39 393.98C215.93 387.66 205.46 383.33 194.3 381.1C192.99 380.83 186.39 379.52 174.53 377.14C171.69 365.8 170.12 359.5 169.8 358.24C184.59 348.98 195.36 333.91 198.79 316.21C199.03 315.82 200.92 312.67 201.15 312.28C210.15 297.28 216.54 280.95 220.25 264C222.1 264 231.35 264 248 264C248 271.03 248 274.94 248 275.72C248 286.9 257.1 296 268.28 296C272.3 296 276.18 294.82 279.53 292.59C282.39 290.69 296.69 281.16 322.42 264C345.86 264 358.88 264 361.48 264C364.79 273.29 373.59 280 384.01 280C386.82 280 389.5 279.42 392.01 278.53C392.01 281.08 392.01 301.45 392.01 304C392.01 308.41 388.42 312 384.01 312C379.6 312 376.01 308.41 376.01 304C374.41 304 361.61 304 360.01 304C360.01 317.23 370.78 328 384.01 328C397.24 328 408.01 317.23 408.01 304C408.01 301.33 408.01 288 408.01 264C418.49 264 424.32 264 425.48 264C428.79 273.29 437.59 280 448.01 280C450.82 280 453.5 279.42 456.01 278.53C456.01 281.08 456.01 301.45 456.01 304C456.01 308.41 452.42 312 448.01 312C443.6 312 440.01 308.41 440.01 304C438.41 304 425.61 304 424.01 304C424.01 317.23 434.78 328 448.01 328C461.24 328 472.01 317.23 472.01 304C472.01 301.33 472.01 288 472.01 264C476.81 264 479.47 264 480.01 264C493.24 264 504.01 253.23 504.01 240C504.01 225.6 504.01 110.4 504.01 96C504 82.77 493.23 72 480 72C436.51 72 284.28 72 262.53 72ZM248 80C248 84.41 244.41 88 240 88C235.59 88 232 84.41 232 80C232 75.59 235.59 72 240 72C244.41 72 248 75.59 248 80ZM184 80C184 84.41 180.41 88 176 88C171.59 88 168 84.41 168 80C168 75.59 171.59 72 176 72C180.41 72 184 75.59 184 80ZM61.66 245.66C61.69 245.63 61.93 245.38 61.96 245.35C62.95 246.17 63.97 246.97 65.05 247.69C65.51 248 67.83 249.53 72 252.3L72 289.18C66.1 281.82 62.82 277.73 62.17 276.91C58.19 271.94 56 265.68 56 259.31C56 254.23 58.06 249.25 61.66 245.66ZM101.37 392.68L123.1 414.41L102.12 426.99L97.06 393.54L101.37 392.68ZM134.56 464L137.44 464L142.24 488L129.76 488L134.56 464ZM139.57 448L132.44 448L123.1 433.07L136 425.33L148.9 433.06L139.57 448ZM24 466.12C24 442.43 35.77 420.44 55.49 407.29C63.21 402.14 71.74 398.61 80.84 396.78C80.87 396.78 81.04 396.74 81.35 396.68L89.89 453L109.39 441.3L119.54 457.54L113.44 488L72 488L72 456L56 456L56 488L24 488C24 476.33 24 469.04 24 466.12ZM248 466.12C248 467.58 248 474.87 248 488L216 488L216 456L200 456L200 488L158.56 488L152.47 457.54L162.62 441.3L182.13 453L190.66 396.68C190.97 396.74 191.14 396.78 191.18 396.78C200.26 398.61 208.79 402.14 216.51 407.3C236.23 420.44 248 442.43 248 466.12ZM174.94 393.54L169.88 426.99L148.9 414.41L170.63 392.68L174.94 393.54ZM159.14 381.54L136 404.69L112.86 381.54C115.32 371.68 116.69 366.2 116.97 365.1C122.98 366.98 129.38 368 136 368C142.62 368 149.02 366.98 155.03 365.11C155.58 367.3 156.95 372.78 159.14 381.54ZM184 304C184 330.47 162.47 352 136 352C109.53 352 88 330.47 88 304C88 300.57 88 273.1 88 269.66C90.5 270.55 93.19 271.03 96 271.03C118.46 271.03 130.87 257.76 139.94 248.06C144.1 243.62 148.39 239.03 151.03 239.03C159.84 239.03 168.12 242.46 174.34 248.69C180.57 254.91 184 263.19 184 272C184 278.4 184 297.6 184 304ZM200 272C200 258.92 194.9 246.62 185.66 237.38C176.41 228.13 164.11 223.03 151.03 223.03C141.45 223.03 134.74 230.2 128.26 237.14C120.02 245.94 111.52 255.03 96 255.03C91.59 255.03 88 251.44 88 247.03C88 242.62 91.59 239.03 96 239.03C96.53 239.03 99.2 239.03 104 239.03L104 223.03C99.2 223.03 96.53 223.03 96 223.03C87.07 223.03 79.36 227.99 75.22 235.24C75.09 235.15 74.02 234.44 73.89 234.35C67.7 230.25 64 223.36 64 215.54C64 207.63 67.06 200.23 72.6 194.7C72.81 194.48 74.52 192.78 74.73 192.57C80.26 187.04 87.63 184 95.46 184C102.05 184 154.78 184 161.37 184C173.82 184 185.54 188.85 194.34 197.66C194.4 197.71 194.87 198.18 194.93 198.24C203.37 206.68 208.01 217.9 208.01 229.83C208.01 246.01 205.26 262 200 277.16C200 276.13 200 272.52 200 272ZM376 256C376 251.59 379.59 248 384 248C388.41 248 392 251.59 392 256C392 260.41 388.41 264 384 264C379.59 264 376 260.41 376 256ZM440 256C440 251.59 443.59 248 448 248C452.41 248 456 251.59 456 256C456 260.41 452.41 264 448 264C443.59 264 440 260.41 440 256ZM488 240C488 244.41 484.41 248 480 248C479.05 248 471.48 248 470.53 248C467.22 238.71 458.42 232 448 232C437.58 232 428.78 238.71 425.47 248C423.58 248 408.42 248 406.52 248C403.21 238.71 394.41 232 383.99 232C373.58 232 364.78 238.71 361.46 248C358.54 248 343.91 248 317.57 248C289.42 266.77 273.78 277.19 270.65 279.28C267.98 281.04 264 278.92 264 275.72C264 273.87 264 264.63 264 248C239.33 248 225.63 248 222.89 248C223.58 241.98 224 235.93 224.01 229.83C224.01 213.62 217.7 198.38 206.24 186.93C206.18 186.87 205.71 186.4 205.66 186.34C193.83 174.51 178.1 168 161.37 168C159.68 168 151.22 168 136 168C136 124.8 136 100.8 136 96C136 91.59 139.59 88 144 88C144.95 88 152.52 88 153.47 88C156.78 97.29 165.58 104 176 104C186.42 104 195.22 97.29 198.53 88C200.42 88 215.58 88 217.48 88C220.79 97.29 229.59 104 240.01 104C250.42 104 259.22 97.29 262.54 88C284.28 88 458.25 88 480 88C484.41 88 488 91.59 488 96C488 124.8 488 211.2 488 240Z" id="dkj7UHWf8"></path><path d="M344 216L472 216L472 104L344 104L344 216ZM360 120L456 120L456 200L360 200L360 120Z" id="e13DCchfn5"></path><path d="M152 120L168 120L168 136L152 136L152 120Z" id="j6UK7pH0in"></path><path d="M184 120L328 120L328 136L184 136L184 120Z" id="c3bIucoHf4"></path><path d="M240 152L328 152L328 168L240 168L240 152Z" id="hwOTEmrix"></path><path d="M240 184L328 184L328 200L240 200L240 184Z" id="c23UWtLcLK"></path><path d="M240 216L328 216L328 232L240 232L240 216Z" id="d3asVp2LyX"></path><path d="M160 272C155.58 272 152 275.58 152 280C152 284.42 155.58 288 160 288C164.42 288 168 284.42 168 280C168 275.58 164.42 272 160 272Z" id="a3A0MBrPY5"></path><path d="M112 272C107.58 272 104 275.58 104 280C104 284.42 107.58 288 112 288C116.42 288 120 284.42 120 280C120 275.58 116.42 272 112 272Z" id="d1RqSxHLJ"></path></defs><g><g><g><use xlink:href="#b3MYSpHdkg" opacity="1" fill="#00cf5d" fill-opacity="1"></use><g><use xlink:href="#b3MYSpHdkg" opacity="1" fill-opacity="0" stroke="#000000" stroke-width="1" stroke-opacity="0"></use></g></g><g><use xlink:href="#dkj7UHWf8" opacity="1" fill="#00cf5d" fill-opacity="1"></use><g><use xlink:href="#dkj7UHWf8" opacity="1" fill-opacity="0" stroke="#000000" stroke-width="1" stroke-opacity="0"></use></g></g><g><use xlink:href="#e13DCchfn5" opacity="1" fill="#00cf5d" fill-opacity="1"></use><g><use xlink:href="#e13DCchfn5" opacity="1" fill-opacity="0" stroke="#000000" stroke-width="1" stroke-opacity="0"></use></g></g><g><use xlink:href="#j6UK7pH0in" opacity="1" fill="#00cf5d" fill-opacity="1"></use><g><use xlink:href="#j6UK7pH0in" opacity="1" fill-opacity="0" stroke="#000000" stroke-width="1" stroke-opacity="0"></use></g></g><g><use xlink:href="#c3bIucoHf4" opacity="1" fill="#00cf5d" fill-opacity="1"></use><g><use xlink:href="#c3bIucoHf4" opacity="1" fill-opacity="0" stroke="#000000" stroke-width="1" stroke-opacity="0"></use></g></g><g><use xlink:href="#hwOTEmrix" opacity="1" fill="#00cf5d" fill-opacity="1"></use><g><use xlink:href="#hwOTEmrix" opacity="1" fill-opacity="0" stroke="#000000" stroke-width="1" stroke-opacity="0"></use></g></g><g><use xlink:href="#c23UWtLcLK" opacity="1" fill="#00cf5d" fill-opacity="1"></use><g><use xlink:href="#c23UWtLcLK" opacity="1" fill-opacity="0" stroke="#000000" stroke-width="1" stroke-opacity="0"></use></g></g><g><use xlink:href="#d3asVp2LyX" opacity="1" fill="#00cf5d" fill-opacity="1"></use><g><use xlink:href="#d3asVp2LyX" opacity="1" fill-opacity="0" stroke="#000000" stroke-width="1" stroke-opacity="0"></use></g></g><g><use xlink:href="#a3A0MBrPY5" opacity="1" fill="#00cf5d" fill-opacity="1"></use><g><use xlink:href="#a3A0MBrPY5" opacity="1" fill-opacity="0" stroke="#000000" stroke-width="1" stroke-opacity="0"></use></g></g><g><use xlink:href="#d1RqSxHLJ" opacity="1" fill="#00cf5d" fill-opacity="1"></use><g><use xlink:href="#d1RqSxHLJ" opacity="1" fill-opacity="0" stroke="#000000" stroke-width="1" stroke-opacity="0"></use></g></g></g></g></svg>