<?xml version="1.0" encoding="UTF-8" standalone="no"?>
<!DOCTYPE svg PUBLIC "-//W3C//DTD SVG 1.1//EN" "http://www.w3.org/Graphics/SVG/1.1/DTD/svg11.dtd">
<svg version="1.1" xmlns="http://www.w3.org/2000/svg" xmlns:xlink="http://www.w3.org/1999/xlink" preserveAspectRatio="xMidYMid meet" viewBox="0 0 640 640" width="740" height="740"><defs><path d="M35.48 421.75C35.29 422.19 35 422.6 34.82 423.02C34.2 424.61 29.2 437.32 28.58 438.9C19.95 460.83 30.72 485.6 52.64 494.23C54.23 494.86 66.93 499.86 68.52 500.49C73.48 502.45 78.77 503.46 84.1 503.47C84.52 503.47 84.96 503.39 85.33 503.37C85.33 503.38 85.33 503.46 85.33 503.47C117.91 503.47 151.59 503.4 192.53 481.18C194.51 481.93 210.38 487.93 212.36 488.68C213.91 492.97 216.2 496.96 219.13 500.45C225.17 507.71 234.11 511.93 243.55 512C246.04 512 265.96 512 268.45 512C277.89 511.93 286.83 507.71 292.87 500.45C295.8 496.96 298.09 492.97 299.64 488.68C301.62 487.93 317.49 481.93 319.47 481.18C360.41 503.4 394.09 503.47 426.67 503.47C426.67 503.46 426.67 503.37 426.67 503.36C427.08 503.36 427.48 503.46 427.9 503.46C433.23 503.46 438.52 502.45 443.48 500.49C445.07 499.86 457.77 494.86 459.36 494.23C481.28 485.6 492.05 460.83 483.42 438.9C482.8 437.32 477.8 424.61 477.18 423.02C477 422.57 476.72 422.17 476.52 421.75C478.98 420.82 498.71 413.34 501.17 412.41C505.66 410.61 509.19 407.01 510.9 402.49C512.57 398.04 512.3 393.09 510.17 388.84C509.23 386.96 501.76 371.94 500.82 370.07C496.88 362.22 487.62 358.64 479.43 361.8C479.38 361.82 479.16 361.91 478.75 362.07C469.53 337.45 464.41 323.78 463.39 321.04C461.75 316.7 458.43 313.21 454.18 311.35C449.95 309.5 445.15 309.47 440.9 311.25C419.99 319.96 352.58 347.95 313.26 363.86C311.29 358.74 309.82 353.43 308.89 348.02C316.22 345.22 323.35 341.91 330.22 338.11C363.9 318.6 382.51 283.31 389.26 247.47C389.58 247.47 392.21 247.47 392.53 247.47C403.85 247.48 414.71 242.99 422.72 234.98C430.72 226.98 435.21 216.12 435.2 204.8C435.24 189.91 427.47 176.1 414.72 168.41C417.07 154.49 418.22 140.4 418.13 126.29C418.13 43.1 324.76 2.37 320.79 0.68C317.75 -0.75 314.15 -0.27 311.59 1.92C309.12 4.03 308.15 7.43 309.15 10.53C309.15 10.63 309.21 11.57 307.87 13.05C305.01 16.21 294.22 23.55 256 23.55C154.45 23.55 93.87 61.95 93.87 126.29C93.81 140.42 94.95 154.52 97.28 168.46C84.55 176.14 76.77 189.93 76.8 204.8C76.79 216.12 81.28 226.98 89.28 234.98C97.29 242.99 108.15 247.48 119.47 247.47C119.79 247.47 122.42 247.47 122.74 247.47C129.49 283.31 148.1 318.6 181.83 338.08C188.7 341.88 195.83 345.2 203.16 348C202.23 353.41 200.76 358.71 198.79 363.84C160.16 348.24 92.16 320 71.12 311.23C66.87 309.44 62.06 309.47 57.84 311.32C53.59 313.18 50.28 316.68 48.64 321.02C47.62 323.75 42.5 337.43 33.28 362.04C32.91 361.91 32.71 361.83 32.67 361.81C24.42 358.58 15.06 362.19 11.14 370.13C10.21 371.99 2.8 386.88 1.88 388.74C-0.3 393.01 -0.58 398 1.1 402.49C2.84 407.06 6.42 410.68 10.97 412.46C10.97 412.46 33.03 420.82 35.48 421.75ZM58.88 478.35C45.73 473.17 39.27 458.31 44.45 445.16C45.07 443.57 50.07 430.87 50.7 429.28C51.53 427.17 53.16 425.47 55.24 424.57C57.33 423.66 59.68 423.63 61.79 424.47C66.55 426.34 104.67 441.36 109.43 443.24C111.54 444.07 113.24 445.7 114.14 447.79C115.05 449.87 115.08 452.22 114.24 454.33C113.62 455.92 108.6 468.6 107.97 470.19C102.78 483.33 87.93 489.79 74.78 484.61C71.6 483.36 60.47 478.98 58.88 478.35ZM123.86 476.4C124.49 474.81 129.48 462.11 130.11 460.52C130.41 459.64 130.67 458.75 130.88 457.84C134.85 459.35 166.69 471.39 170.67 472.9C154.22 480.02 136.68 484.27 118.8 485.49C120.86 482.66 122.56 479.62 123.86 476.4ZM268.45 494.93C265.96 494.93 246.04 494.93 243.55 494.93C239.06 494.82 234.85 492.75 232.01 489.27C227.58 483.86 225.66 476.81 226.75 469.9C226.92 468.72 227.77 462.84 229.31 452.27L282.78 452.27C284.29 462.84 285.13 468.72 285.29 469.9C286.37 476.81 284.44 483.86 279.99 489.27C277.16 492.74 272.94 494.82 268.45 494.93ZM292.51 353.53C293.66 359.27 295.32 364.9 297.47 370.35C275.75 379.9 263.12 390.18 256.01 402.55C248.9 390.16 236.26 379.88 214.53 370.35C216.68 364.9 218.34 359.27 219.49 353.53C243.39 360.06 268.61 360.06 292.51 353.53ZM381.12 457.86C381.33 458.77 381.59 459.67 381.89 460.54C382.52 462.13 387.51 474.84 388.14 476.42C389.44 479.64 391.14 482.68 393.19 485.49C375.31 484.27 357.78 480.02 341.33 472.9C349.29 469.89 373.17 460.87 381.12 457.86ZM453.12 478.35C451.53 478.98 438.82 483.98 437.23 484.61C424.08 489.79 409.22 483.32 404.04 470.17C403.41 468.58 398.41 455.88 397.78 454.29C396.94 452.18 396.98 449.82 397.88 447.74C398.79 445.66 400.48 444.02 402.59 443.2C407.36 441.32 445.47 426.3 450.24 424.42C452.34 423.58 454.7 423.62 456.78 424.52C458.86 425.43 460.5 427.12 461.33 429.24C461.95 430.82 466.95 443.53 467.58 445.12C470.08 451.45 469.95 458.52 467.2 464.75C464.51 470.99 459.44 475.88 453.12 478.35ZM494.98 396.48C475.67 403.8 464.94 407.87 462.8 408.68C456.77 406.24 450.03 406.2 443.97 408.57C439.21 410.44 401.09 425.46 396.33 427.34C390.85 429.52 386.3 433.55 383.47 438.72C375.35 441.8 310.35 466.37 302.23 469.44C302.17 468.78 302.23 468.14 302.15 467.47C301.98 466.26 301.12 460.18 299.59 449.25L476.86 381.04L485.62 377.72L494.98 396.48ZM462.81 368.15L288.55 435.2C274.29 435.2 266.37 435.2 264.78 435.2C266.21 410.07 275.31 397.41 311.08 383.15C311.18 383.11 311.98 382.79 312.08 382.75C348.71 368.01 424.96 336.34 447.39 327.01C447.39 327 452.53 340.72 462.81 368.15ZM392.53 230.4C392.44 230.4 391.68 230.4 391.59 230.4C392.45 220.69 392.45 210.92 391.59 201.22C391.52 200.53 391.37 198.45 391.17 195.48C390.88 191.34 390.48 185.51 390 179.2C390.25 179.2 392.28 179.2 392.53 179.2C395.78 179.19 399 179.83 402.01 181.07C409.99 184.25 415.84 191.23 417.59 199.64C419.34 208.05 416.75 216.78 410.69 222.88C405.87 227.69 399.34 230.39 392.53 230.4ZM119.47 230.4C107.22 230.34 96.73 221.61 94.45 209.58C92.16 197.55 98.71 185.59 110.08 181.03C113.06 179.81 116.25 179.19 119.47 179.2C119.72 179.2 121.77 179.2 122.03 179.2C121.55 185.51 121.17 191.34 120.86 195.48C120.65 198.45 120.51 200.53 120.44 201.22C119.58 210.92 119.58 220.69 120.44 230.4C120.24 230.4 119.66 230.4 119.47 230.4ZM123.43 162.13C123.03 162.13 119.86 162.13 119.47 162.13C117.49 162.18 115.53 162.37 113.58 162.7C111.76 150.65 110.88 138.48 110.93 126.29C110.93 48.96 212.39 40.62 256 40.62C291.68 40.62 313.34 34.65 322.22 22.43C322.59 21.93 322.92 21.42 323.23 20.91C345.55 32.88 401.07 68.45 401.07 126.29C401.13 138.48 400.23 150.65 398.39 162.7C396.45 162.37 394.5 162.18 392.53 162.13C392.14 162.13 388.97 162.13 388.57 162.13C388.45 160.87 388.33 159.57 388.22 158.4C386.85 144.58 375.72 133.76 361.87 132.8C340.87 131.25 289.66 124.89 267.72 99.27C264.71 95.97 260.46 94.1 256 94.1C251.53 94.1 247.28 95.97 244.27 99.27C222.34 124.87 171.13 131.24 150.13 132.79C136.28 133.76 125.14 144.58 123.78 158.4C123.67 159.61 123.55 160.87 123.43 162.13ZM137.88 196.63C138.48 188.09 139.59 172.31 140.77 160.05C141.34 154.51 145.82 150.19 151.38 149.81C179.65 147.75 230.4 140.04 256 111.79C281.6 140.03 332.36 147.75 360.63 149.83C366.19 150.2 370.66 154.53 371.23 160.07C372.45 172.32 373.53 188.1 374.13 196.64C374.35 199.83 374.5 202.05 374.57 202.79C378.5 245.27 363.67 299.02 321.66 323.29C314.45 327.27 306.94 330.69 299.2 333.53C271.38 344.02 240.68 344.02 212.85 333.53C205.11 330.69 197.6 327.27 190.39 323.29C148.33 299.03 133.5 245.28 137.43 202.79C137.51 202.04 137.66 199.82 137.88 196.63ZM64.56 326.99C87.05 336.38 163.29 368.01 199.71 382.62C199.91 382.7 201.44 383.32 201.63 383.39C236.76 397.44 245.76 410.08 247.22 435.2C245.63 435.2 237.71 435.2 223.45 435.2L49.19 368.15C57.39 346.2 62.51 332.48 64.56 326.99ZM26.45 377.72L212.48 449.25C210.94 460.19 210.09 466.27 209.92 467.48C209.83 468.15 209.92 468.79 209.84 469.45C201.72 466.38 136.72 441.8 128.6 438.73C125.77 433.55 121.22 429.53 115.74 427.34C110.97 425.46 72.86 410.44 68.1 408.57C62.04 406.19 55.3 406.22 49.27 408.67C47.13 407.85 36.44 403.76 17.19 396.4L26.45 377.72Z" id="c9SXBocS"></path><path d="M227.84 241.38C229.51 237.96 230.38 234.21 230.4 230.4C230.4 216.26 218.94 204.8 204.8 204.8C190.66 204.8 179.2 216.26 179.2 230.4C179.22 234.21 180.09 237.96 181.76 241.38C179.29 243.81 178.53 247.49 179.84 250.69C181.15 253.9 184.27 256 187.73 256C191.15 256 218.45 256 221.87 256C226.58 256 230.4 252.18 230.4 247.47C230.4 245.18 229.48 242.98 227.84 241.38ZM213.33 230.4C213.33 235.11 209.51 238.93 204.8 238.93C200.09 238.93 196.27 235.11 196.27 230.4C196.27 225.69 200.09 221.87 204.8 221.87C209.51 221.87 213.33 225.69 213.33 230.4Z" id="d4mDe6h0lt"></path><path d="M290.13 256C293.55 256 320.85 256 324.27 256C327.73 256 330.85 253.9 332.16 250.69C333.47 247.49 332.71 243.81 330.24 241.38C331.91 237.96 332.78 234.21 332.8 230.4C332.8 216.26 321.34 204.8 307.2 204.8C293.06 204.8 281.6 216.26 281.6 230.4C281.62 234.21 282.49 237.96 284.16 241.38C282.52 242.98 281.6 245.18 281.6 247.47C281.6 252.18 285.42 256 290.13 256ZM315.73 230.4C315.73 235.11 311.91 238.93 307.2 238.93C302.49 238.93 298.67 235.11 298.67 230.4C298.67 225.69 302.49 221.87 307.2 221.87C311.91 221.87 315.73 225.69 315.73 230.4Z" id="b2aroYZBoU"></path><path d="M224.37 304.7C233.11 312.28 244.43 316.23 256 315.73C267.57 316.23 278.89 312.28 287.63 304.7C290.93 301.41 290.95 296.07 287.68 292.75C284.41 289.41 279.07 289.3 275.67 292.51C270.06 296.85 263.08 299.04 256 298.67C248.94 299.04 241.98 296.87 236.37 292.55C233.02 289.28 227.67 289.32 224.37 292.63C221.04 295.97 221.04 301.37 224.37 304.7Z" id="bkd2RGvsB"></path><path d="M264.53 273.07C269.25 273.07 273.07 269.25 273.07 264.53C273.07 259.82 269.25 256 264.53 256C262.83 256 249.17 256 247.47 256C242.75 256 238.93 259.82 238.93 264.53C238.93 269.25 242.75 273.07 247.47 273.07C250.88 273.07 262.83 273.07 264.53 273.07Z" id="a1j3nqmGFW"></path><path d="M213.33 170.67C213.33 165.95 209.51 162.13 204.8 162.13C203.55 162.13 173.8 162.38 163.03 183.92C160.92 188.14 162.63 193.26 166.85 195.37C171.07 197.48 176.2 195.77 178.3 191.55C184.21 179.73 204.43 179.2 204.8 179.2C209.51 179.2 213.33 175.38 213.33 170.67Z" id="fxhExLtIF"></path><path d="M333.65 191.55C335.02 194.28 337.73 196.07 340.78 196.25C343.82 196.44 346.73 194.98 348.41 192.44C350.09 189.9 350.29 186.65 348.93 183.92C338.2 162.38 308.45 162.13 307.2 162.13C302.49 162.13 298.67 165.95 298.67 170.67C298.67 175.38 302.49 179.2 307.2 179.2C307.4 179.2 327.68 179.54 333.65 191.55Z" id="b9vfXLKOF"></path></defs><g><g><g><use xlink:href="#c9SXBocS" opacity="1" fill="#00cf5d" fill-opacity="1"></use><g><use xlink:href="#c9SXBocS" opacity="1" fill-opacity="0" stroke="#000000" stroke-width="1" stroke-opacity="0"></use></g></g><g><use xlink:href="#d4mDe6h0lt" opacity="1" fill="#00cf5d" fill-opacity="1"></use><g><use xlink:href="#d4mDe6h0lt" opacity="1" fill-opacity="0" stroke="#000000" stroke-width="1" stroke-opacity="0"></use></g></g><g><use xlink:href="#b2aroYZBoU" opacity="1" fill="#00cf5d" fill-opacity="1"></use><g><use xlink:href="#b2aroYZBoU" opacity="1" fill-opacity="0" stroke="#000000" stroke-width="1" stroke-opacity="0"></use></g></g><g><use xlink:href="#bkd2RGvsB" opacity="1" fill="#00cf5d" fill-opacity="1"></use><g><use xlink:href="#bkd2RGvsB" opacity="1" fill-opacity="0" stroke="#000000" stroke-width="1" stroke-opacity="0"></use></g></g><g><use xlink:href="#a1j3nqmGFW" opacity="1" fill="#00cf5d" fill-opacity="1"></use><g><use xlink:href="#a1j3nqmGFW" opacity="1" fill-opacity="0" stroke="#000000" stroke-width="1" stroke-opacity="0"></use></g></g><g><use xlink:href="#fxhExLtIF" opacity="1" fill="#00cf5d" fill-opacity="1"></use><g><use xlink:href="#fxhExLtIF" opacity="1" fill-opacity="0" stroke="#000000" stroke-width="1" stroke-opacity="0"></use></g></g><g><use xlink:href="#b9vfXLKOF" opacity="1" fill="#00cf5d" fill-opacity="1"></use><g><use xlink:href="#b9vfXLKOF" opacity="1" fill-opacity="0" stroke="#000000" stroke-width="1" stroke-opacity="0"></use></g></g></g></g></svg>